<?xml version="1.0" encoding="UTF-8" standalone="no"?>
<!-- Created with Inkscape (http://www.inkscape.org/) -->

<svg
   xmlns:dc="http://purl.org/dc/elements/1.1/"
   xmlns:cc="http://creativecommons.org/ns#"
   xmlns:rdf="http://www.w3.org/1999/02/22-rdf-syntax-ns#"
   xmlns:svg="http://www.w3.org/2000/svg"
   xmlns="http://www.w3.org/2000/svg"
   xmlns:sodipodi="http://sodipodi.sourceforge.net/DTD/sodipodi-0.dtd"
   xmlns:inkscape="http://www.inkscape.org/namespaces/inkscape"
   id="svg2"
   version="1.1"
   inkscape:version="0.91 r13725"
   xml:space="preserve"
   width="470"
   height="70"
   viewBox="0 0 470 70"
   sodipodi:docname="s24-2.svg"><metadata
     id="metadata8"><rdf:RDF><cc:Work
         rdf:about=""><dc:format>image/svg+xml</dc:format><dc:type
           rdf:resource="http://purl.org/dc/dcmitype/StillImage" /><dc:title></dc:title></cc:Work></rdf:RDF></metadata><defs
     id="defs6"><clipPath
       clipPathUnits="userSpaceOnUse"
       id="clipPath18"><path
         d="m 0,218.268 226.768,0 L 226.768,0 0,0 0,218.268 Z"
         id="path20"
         inkscape:connector-curvature="0" /></clipPath><clipPath
       clipPathUnits="userSpaceOnUse"
       id="clipPath90"><path
         d="m 0,218.268 226.768,0 L 226.768,0 0,0 0,218.268 Z"
         id="path92"
         inkscape:connector-curvature="0" /></clipPath><clipPath
       clipPathUnits="userSpaceOnUse"
       id="clipPath664"><path
         d="m 0,218.268 226.768,0 L 226.768,0 0,0 0,218.268 Z"
         id="path666"
         inkscape:connector-curvature="0" /></clipPath><clipPath
       clipPathUnits="userSpaceOnUse"
       id="clipPath876"><path
         d="m 0,218.268 226.768,0 L 226.768,0 0,0 0,218.268 Z"
         id="path878"
         inkscape:connector-curvature="0" /></clipPath></defs><sodipodi:namedview
     pagecolor="#ffffff"
     bordercolor="#666666"
     borderopacity="1"
     objecttolerance="10"
     gridtolerance="10"
     guidetolerance="10"
     inkscape:pageopacity="0"
     inkscape:pageshadow="2"
     inkscape:window-width="1920"
     inkscape:window-height="1016"
     id="namedview4"
     showgrid="false"
     inkscape:zoom="1.223283"
     inkscape:cx="279.87107"
     inkscape:cy="66.974803"
     inkscape:window-x="0"
     inkscape:window-y="0"
     inkscape:window-maximized="1"
     inkscape:current-layer="g10" /><g
     id="g10"
     inkscape:groupmode="layer"
     inkscape:label="nadruk-krowka-01"
     transform="matrix(1.25,0,0,-1.25,0,70.000009)"
     style="display:inline"><g
       id="g14"
       transform="matrix(-4.4488448,0,0,-4.4488448,695.85877,758.9286)"><g
         id="g16"
         clip-path="url(#clipPath18)"><g
           id="g22"
           transform="translate(150.814,163.3232)"><path
             d="m 0,0 0.863,0 c 0.116,0 0.232,-0.047 0.266,-0.289 0.058,-0.379 0.493,-0.529 0.92,-0.529 0.518,0 0.923,0.15 0.923,0.471 0,0.347 -0.449,0.381 -0.923,0.472 -1.014,0.197 -2.44,0.347 -2.44,1.924 0,1.139 1.127,1.877 2.44,1.877 1.269,0 2.465,-0.564 2.465,-2.015 0,-0.126 -0.102,-0.23 -0.231,-0.23 l -0.876,0 C 3.133,1.681 3.086,1.772 3.063,1.968 3.018,2.417 2.58,2.567 2.049,2.567 1.43,2.567 0.99,2.383 0.99,2.025 0.99,1.636 1.519,1.565 2.049,1.498 2.995,1.37 4.365,1 4.365,-0.347 c 0,-1.023 -1.197,-1.738 -2.316,-1.738 -1.035,0 -2.278,0.519 -2.278,1.855 C -0.229,-0.103 -0.125,0 0,0"
             style="fill:#ffffff;fill-opacity:1;fill-rule:nonzero;stroke:none"
             id="path24"
             inkscape:connector-curvature="0" /></g><g
           id="g26"
           transform="translate(148.144,163.3232)"><path
             d="m 0,0 c 0,0.068 -0.046,0.102 -0.114,0.102 l -1.753,0 c -0.069,0 -0.114,-0.034 -0.114,-0.102 0,-0.496 0.482,-0.726 0.98,-0.726 C -0.345,-0.726 0,-0.438 0,0 m -0.163,1.382 c 0.103,0 0.176,0.068 0.176,0.172 0,0.634 -0.463,0.979 -1.014,0.979 -0.45,0 -0.761,-0.116 -0.913,-0.484 -0.055,-0.15 -0.161,-0.196 -0.262,-0.196 l -0.957,0 c -0.116,0 -0.242,0.069 -0.196,0.254 0.266,1.07 1.048,1.819 2.328,1.819 1.403,0 2.232,-0.933 2.382,-2.141 0.056,-0.461 0.056,-1.267 0,-1.728 -0.15,-1.208 -0.979,-2.142 -2.382,-2.142 -1.384,0 -2.35,0.817 -2.35,2.28 l 0,0.956 c 0,0.126 0.102,0.231 0.229,0.231 l 2.959,0 z"
             style="fill:#ffffff;fill-opacity:1;fill-rule:nonzero;stroke:none"
             id="path28"
             inkscape:connector-curvature="0" /></g><g
           id="g30"
           transform="translate(140.5562,163.3804)"><path
             d="m 0,0 c 0.034,-0.438 0.309,-0.691 0.875,-0.691 0.553,0 0.84,0.311 0.863,0.691 0.033,0.461 0.033,1.268 0,1.727 C 1.715,2.108 1.428,2.417 0.875,2.417 0.309,2.417 0.034,2.13 0,1.727 -0.035,1.268 -0.035,0.461 0,0 m -0.23,-1.75 c -0.116,0 -0.221,-0.105 -0.288,-0.184 -0.048,-0.046 -0.093,-0.081 -0.164,-0.081 l -0.574,0 c -0.126,0 -0.23,0.103 -0.23,0.23 l 0,5.873 c 0,1.164 0.968,2.13 2.27,2.13 1.219,0 2.267,-0.782 2.267,-1.9 0,-0.127 -0.104,-0.23 -0.233,-0.23 l -0.862,0 C 1.68,4.088 1.692,4.191 1.658,4.352 1.6,4.629 1.312,4.848 0.852,4.848 0.425,4.848 0.011,4.594 0.011,4.088 l 0,-0.115 c 0,-0.232 0.127,-0.322 0.346,-0.241 0.161,0.056 0.344,0.137 0.691,0.137 1.21,0 2.096,-0.933 2.186,-2.142 C 3.269,1.268 3.269,0.461 3.234,0 3.144,-1.209 2.258,-2.143 1.048,-2.143 c -0.853,0 -0.944,0.393 -1.278,0.393"
             style="fill:#ffffff;fill-opacity:1;fill-rule:nonzero;stroke:none"
             id="path32"
             inkscape:connector-curvature="0" /></g><g
           id="g34"
           transform="translate(134.6724,162.748)"><path
             d="m 0,0 c 0.863,0 1.497,0.46 1.497,1.393 l 0,2.751 c 0,0.126 0.101,0.231 0.228,0.231 l 1.039,0 c 0.127,0 0.229,-0.105 0.229,-0.231 l 0,-5.296 c 0,-0.127 -0.102,-0.231 -0.229,-0.231 l -0.576,0 c -0.093,0 -0.209,0.058 -0.242,0.149 -0.07,0.197 -0.115,0.485 -0.312,0.485 -0.357,0 -0.507,-0.634 -1.646,-0.634 l -0.392,0 c -0.127,0 -0.231,0.104 -0.231,0.231 l 0,0.92 C -0.635,-0.105 -0.531,0 -0.404,0 L 0,0 Z"
             style="fill:#ffffff;fill-opacity:1;fill-rule:nonzero;stroke:none"
             id="path36"
             inkscape:connector-curvature="0" /></g><g
           id="g38"
           transform="translate(132.0698,163.3232)"><path
             d="m 0,0 c 0,0.068 -0.045,0.102 -0.116,0.102 l -1.749,0 C -1.934,0.102 -1.98,0.068 -1.98,0 c 0,-0.496 0.482,-0.726 0.977,-0.726 C -0.344,-0.726 0,-0.438 0,0 m -0.161,1.382 c 0.102,0 0.172,0.068 0.172,0.172 0,0.634 -0.461,0.979 -1.014,0.979 -0.448,0 -0.759,-0.116 -0.91,-0.484 -0.056,-0.15 -0.159,-0.196 -0.264,-0.196 l -0.956,0 c -0.114,0 -0.242,0.069 -0.195,0.254 0.265,1.07 1.048,1.819 2.325,1.819 1.405,0 2.234,-0.933 2.387,-2.141 0.054,-0.461 0.054,-1.267 0,-1.728 -0.153,-1.208 -0.982,-2.142 -2.387,-2.142 -1.382,0 -2.347,0.817 -2.347,2.28 l 0,0.956 c 0,0.126 0.103,0.231 0.229,0.231 l 2.96,0 z"
             style="fill:#ffffff;fill-opacity:1;fill-rule:nonzero;stroke:none"
             id="path40"
             inkscape:connector-curvature="0" /></g><g
           id="g42"
           transform="translate(124.4829,163.3804)"><path
             d="m 0,0 c 0.033,-0.438 0.31,-0.691 0.875,-0.691 0.553,0 0.841,0.311 0.863,0.691 0.033,0.461 0.033,1.268 0,1.727 C 1.716,2.108 1.428,2.417 0.875,2.417 0.31,2.417 0.033,2.13 0,1.727 -0.035,1.268 -0.035,0.461 0,0 m -0.232,-1.75 c -0.115,0 -0.217,-0.105 -0.287,-0.184 -0.046,-0.046 -0.092,-0.081 -0.162,-0.081 l -0.577,0 c -0.127,0 -0.228,0.103 -0.228,0.23 l 0,5.873 c 0,1.164 0.967,2.13 2.267,2.13 1.221,0 2.27,-0.782 2.27,-1.9 0,-0.127 -0.105,-0.23 -0.232,-0.23 l -0.862,0 C 1.679,4.088 1.69,4.191 1.655,4.352 1.6,4.629 1.312,4.848 0.853,4.848 0.426,4.848 0.011,4.594 0.011,4.088 l 0,-0.115 c 0,-0.232 0.127,-0.322 0.345,-0.241 0.163,0.056 0.346,0.137 0.691,0.137 1.21,0 2.095,-0.933 2.188,-2.142 C 3.27,1.268 3.27,0.461 3.235,0 3.142,-1.209 2.257,-2.143 1.047,-2.143 c -0.85,0 -0.944,0.393 -1.279,0.393"
             style="fill:#ffffff;fill-opacity:1;fill-rule:nonzero;stroke:none"
             id="path44"
             inkscape:connector-curvature="0" /></g><g
           id="g46"
           transform="translate(119.7944,164.7739)"><path
             d="m 0,0 c 0.498,0 0.587,0.402 0.587,0.575 0,0.426 -0.345,0.611 -0.758,0.611 -0.656,0 -1.163,-0.196 -1.163,-0.795 l 0,-0.275 C -1.334,0.047 -1.287,0 -1.22,0 L 0,0 Z m 0.404,-1.787 c 0.046,0.197 0.104,0.221 0.31,0.221 l 0.831,0 c 0.126,0 0.229,-0.105 0.229,-0.232 0,-0.909 -0.839,-1.738 -2.221,-1.738 -1.394,0 -2.303,0.749 -2.303,2.085 l 0,3.57 c 0,0.125 0.103,0.23 0.229,0.23 l 0.577,0 c 0.069,0 0.116,-0.025 0.161,-0.08 0.07,-0.094 0.081,-0.231 0.229,-0.231 0.207,0 0.53,0.437 1.383,0.437 1.335,0 2.165,-0.69 2.165,-1.9 0,-0.795 -0.657,-1.796 -1.981,-1.796 l -1.174,0 c -0.069,0 -0.114,-0.047 -0.114,-0.115 l 0,-0.184 c 0,-0.473 0.378,-0.703 0.885,-0.703 0.242,0 0.713,0.069 0.794,0.436"
             style="fill:#ffffff;fill-opacity:1;fill-rule:nonzero;stroke:none"
             id="path48"
             inkscape:connector-curvature="0" /></g><g
           id="g50"
           transform="translate(112.2075,161.3999)"><path
             d="m 0,0 c -0.127,0 -0.231,0.103 -0.231,0.23 l 0,0.921 c 0,0.126 0.104,0.231 0.231,0.231 l 1.268,0 c 0.069,0 0.115,0.047 0.115,0.116 l 0,2.094 c 0,0.38 -0.275,0.691 -0.692,0.691 l -0.806,0 c -0.128,0 -0.229,0.104 -0.229,0.231 l 0,0.978 c 0,0.126 0.101,0.23 0.229,0.23 l 0.806,0 c 1.313,0 2.187,-0.794 2.187,-2.106 l 0,-2.118 c 0,-0.069 0.047,-0.116 0.115,-0.116 l 0.9,0 c 0.127,0 0.229,-0.105 0.229,-0.231 l 0,-0.921 C 4.122,0.103 4.02,0 3.893,0 l -0.9,0 C 2.925,0 2.878,-0.047 2.878,-0.115 l 0,-1.762 c 0,-0.126 -0.103,-0.231 -0.23,-0.231 l -1.036,0 c -0.128,0 -0.229,0.105 -0.229,0.231 l 0,1.762 C 1.383,-0.047 1.337,0 1.268,0 L 0,0 Z"
             style="fill:#ffffff;fill-opacity:1;fill-rule:nonzero;stroke:none"
             id="path52"
             inkscape:connector-curvature="0" /></g><g
           id="g54"
           transform="translate(109.7207,165.1079)"><path
             d="m 0,0 c -0.058,0.403 -0.311,0.644 -0.885,0.644 -0.59,0 -0.841,-0.263 -0.9,-0.644 -0.068,-0.46 -0.068,-1.268 0,-1.728 0.059,-0.379 0.31,-0.644 0.9,-0.644 0.574,0 0.817,0.206 0.885,0.644 C 0.069,-1.268 0.069,-0.46 0,0 M 1.498,-1.728 C 1.347,-2.937 0.518,-3.87 -0.885,-3.87 c -1.417,0 -2.247,0.933 -2.397,2.142 -0.058,0.46 -0.058,1.268 0,1.728 0.15,1.208 0.98,2.141 2.384,2.141 1.416,0 2.245,-0.933 2.396,-2.141 0.058,-0.46 0.058,-1.268 0,-1.728"
             style="fill:#ffffff;fill-opacity:1;fill-rule:nonzero;stroke:none"
             id="path56"
             inkscape:connector-curvature="0" /></g><g
           id="g58"
           transform="translate(102.2256,162.748)"><path
             d="m 0,0 c 0.865,0 1.497,0.46 1.497,1.393 l 0,2.751 c 0,0.126 0.104,0.231 0.231,0.231 l 1.035,0 c 0.127,0 0.231,-0.105 0.231,-0.231 l 0,-5.296 c 0,-0.127 -0.104,-0.231 -0.231,-0.231 l -0.575,0 c -0.093,0 -0.208,0.058 -0.242,0.149 -0.07,0.197 -0.116,0.485 -0.31,0.485 -0.36,0 -0.507,-0.634 -1.647,-0.634 l -0.393,0 c -0.127,0 -0.228,0.104 -0.228,0.231 l 0,0.92 C -0.632,-0.105 -0.531,0 -0.404,0 L 0,0 Z"
             style="fill:#ffffff;fill-opacity:1;fill-rule:nonzero;stroke:none"
             id="path60"
             inkscape:connector-curvature="0" /></g><g
           id="g62"
           transform="translate(98.8179,164.8086)"><path
             d="M 0,0 C -0.035,0.091 -0.115,0.091 -0.139,0 L -1.071,-3.27 C -1.105,-3.397 -1.186,-3.443 -1.29,-3.443 l -1.164,0 c -0.184,0 -0.265,0.149 -0.217,0.265 L 0.033,4.444 C 0.08,4.571 0.148,4.617 0.254,4.617 l 1.059,0 c 0.184,0 0.265,-0.151 0.218,-0.265 L 0.726,2.2 C 0.691,2.096 0.68,2.061 0.726,1.946 L 2.637,-3.178 C 2.683,-3.294 2.603,-3.443 2.419,-3.443 l -1.188,0 c -0.102,0 -0.172,0.046 -0.218,0.173 L 0,0 Z"
             style="fill:#ffffff;fill-opacity:1;fill-rule:nonzero;stroke:none"
             id="path64"
             inkscape:connector-curvature="0" /></g><g
           id="g66"
           transform="translate(93.8535,161.5249)"><path
             d="m 0,0 c 0,0.129 0.104,0.232 0.231,0.232 l 1.093,0 C 1.452,0.232 1.557,0.129 1.557,0 l 0,-0.183 c 0,-1.346 -1.107,-2.406 -2.454,-2.406 -1.359,0 -2.429,1.06 -2.429,2.406 0,0.633 0.288,1.245 0.714,1.704 l 2.164,2.292 c 0.069,0.07 0.08,0.23 -0.114,0.23 l -2.546,0 c -0.127,0 -0.229,0.103 -0.229,0.229 l 0,1.095 c 0,0.126 0.102,0.231 0.229,0.231 l 4.514,0 c 0.126,0 0.231,-0.105 0.231,-0.231 l 0,-1.358 C 1.637,3.837 1.579,3.767 1.532,3.722 l -2.98,-3.168 c -0.128,-0.137 -0.324,-0.505 -0.324,-0.749 0,-0.459 0.31,-0.839 0.828,-0.839 C -0.368,-1.034 0,-0.7 0,-0.195 L 0,0 Z"
             style="fill:#ffffff;fill-opacity:1;fill-rule:nonzero;stroke:none"
             id="path68"
             inkscape:connector-curvature="0" /></g><g
           id="g70"
           transform="translate(86.7725,164.2329)"><path
             d="m 0,0 c -0.068,0 -0.113,-0.046 -0.113,-0.116 l 0,-2.442 c 0,-0.079 0.091,-0.09 0.127,-0.033 l 1.324,2.452 C 1.384,-0.059 1.35,0 1.268,0 L 0,0 Z m 0.093,-5.008 c -0.069,-0.128 -0.115,-0.163 -0.24,-0.163 l -1.234,0 c -0.128,0 -0.23,0.104 -0.23,0.23 l 0,4.825 C -1.611,-0.046 -1.655,0 -1.726,0 l -0.426,0 c -0.127,0 -0.229,0.103 -0.229,0.229 l 0,0.991 c 0,0.127 0.102,0.23 0.229,0.23 l 0.426,0 c 0.071,0 0.115,0.046 0.115,0.114 l 0,1.095 c 0,0.126 0.102,0.23 0.23,0.23 l 1.037,0 c 0.125,0 0.231,-0.104 0.231,-0.23 l 0,-1.095 C -0.113,1.496 -0.068,1.45 0,1.45 l 2.707,0 c 0.127,0 0.231,-0.103 0.231,-0.23 l 0,-1.198 c 0,-0.161 -0.093,-0.287 -0.185,-0.437 l -2.66,-4.593 z"
             style="fill:#ffffff;fill-opacity:1;fill-rule:nonzero;stroke:none"
             id="path72"
             inkscape:connector-curvature="0" /></g><g
           id="g74"
           transform="translate(81.604,166.8926)"><path
             d="m 0,0 c 0,0.125 0.104,0.229 0.231,0.229 l 1.381,0 C 1.74,0.229 1.843,0.125 1.843,0 l 0,-1.382 c 0,-0.127 -0.103,-0.23 -0.231,-0.23 l -1.381,0 C 0.104,-1.612 0,-1.509 0,-1.382 L 0,0 Z"
             style="fill:#ffffff;fill-opacity:1;fill-rule:nonzero;stroke:none"
             id="path76"
             inkscape:connector-curvature="0" /></g><g
           id="g78"
           transform="translate(77.1035,163.3804)"><path
             d="m 0,0 c 0.022,-0.38 0.311,-0.691 0.862,-0.691 0.565,0 0.841,0.287 0.875,0.691 0.034,0.461 0.034,1.268 0,1.727 C 1.703,2.165 1.427,2.417 0.862,2.417 0.311,2.417 0.022,2.108 0,1.727 -0.036,1.268 -0.036,0.461 0,0 m -1.497,0 c -0.036,0.461 -0.036,1.268 0,1.727 0.091,1.209 0.978,2.142 2.186,2.142 0.347,0 0.531,-0.069 0.692,-0.137 0.173,-0.07 0.344,-0.013 0.344,0.241 l 0,1.842 c 0,0.127 0.105,0.229 0.232,0.229 l 1.036,0 c 0.127,0 0.231,-0.102 0.231,-0.229 l 0,-7.6 c 0,-0.127 -0.104,-0.23 -0.231,-0.23 l -0.576,0 c -0.068,0 -0.116,0.035 -0.162,0.081 -0.067,0.079 -0.172,0.184 -0.288,0.184 -0.332,0 -0.425,-0.393 -1.278,-0.393 -1.208,0 -2.095,0.934 -2.186,2.143"
             style="fill:#ffffff;fill-opacity:1;fill-rule:nonzero;stroke:none"
             id="path80"
             inkscape:connector-curvature="0" /></g><g
           id="g82"
           transform="translate(72.8423,166.8926)"><path
             d="m 0,0 c 0,0.125 0.104,0.229 0.231,0.229 l 1.035,0 C 1.393,0.229 1.497,0.125 1.497,0 l 0,-7.716 c 0,-0.127 -0.104,-0.229 -0.231,-0.229 l -1.035,0 C 0.104,-7.945 0,-7.843 0,-7.716 L 0,0 Z"
             style="fill:#ffffff;fill-opacity:1;fill-rule:nonzero;stroke:none"
             id="path84"
             inkscape:connector-curvature="0" /></g></g></g></g></svg>